<svg id="Layer_1" data-name="Layer 1" xmlns="http://www.w3.org/2000/svg" viewBox="0 0 550 1900"><defs><style>.cls-1{fill:#020305;}.cls-1,.cls-2,.cls-3,.cls-4,.cls-5,.cls-6,.cls-7,.cls-8{stroke:#a0a2a4;stroke-miterlimit:10;stroke-width:40px;}.cls-2{fill:#313234;}.cls-3{fill:#414244;}.cls-4{fill:#808183;}.cls-5{fill:#616264;}.cls-6{fill:#a0a1a3;}.cls-7{fill:#909193;}.cls-8{fill:#525354;}</style></defs><rect class="cls-1" x="349.97" y="559.59" width="189.01" height="117.43" transform="translate(-281.36 848.57) rotate(-71.89)"/><rect class="cls-2" x="49.31" y="526.7" width="286.51" height="138.02" transform="translate(259.7 1218.15) rotate(-168.24)"/><rect class="cls-3" x="279.25" y="470.12" width="89.65" height="165.19" transform="translate(-130.33 1004.41) rotate(-104.44)"/><rect class="cls-3" x="165.71" y="782.44" width="146.31" height="204.19" transform="translate(-677.31 875.41) rotate(-74.32)"/><rect class="cls-4" x="303.7" y="806.18" width="205.76" height="141.39" transform="translate(1068.87 1580.85) rotate(161.62)"/><rect class="cls-5" x="72.14" y="817.36" width="116.7" height="150.4" transform="translate(789.24 276.33) rotate(55.23)"/><rect class="cls-6" x="65.46" y="690.06" width="193.17" height="186.78" transform="translate(961.51 813.6) rotate(103.85)"/><rect class="cls-5" x="71.64" y="602.52" width="190.17" height="234.38" transform="translate(836.13 407.2) rotate(78.02)"/><rect class="cls-7" x="300.76" y="569.17" width="194.31" height="270.62" transform="translate(-137.59 97.96) rotate(-11.98)"/><rect class="cls-8" x="232.06" y="647.79" width="144.67" height="225.56" transform="translate(183.43 1570.81) rotate(-149.7)"/><rect class="cls-1" x="349.97" y="1002.71" width="189.01" height="117.43" transform="translate(-702.53 1153.96) rotate(-71.89)"/><rect class="cls-2" x="49.31" y="969.82" width="286.51" height="138.02" transform="translate(169.4 2095.1) rotate(-168.24)"/><rect class="cls-3" x="279.25" y="913.24" width="89.65" height="165.19" transform="translate(-559.45 1558.07) rotate(-104.44)"/><rect class="cls-3" x="165.71" y="1225.57" width="146.31" height="204.19" transform="translate(-1103.94 1198.76) rotate(-74.32)"/><rect class="cls-4" x="303.7" y="1249.3" width="205.76" height="141.39" transform="translate(1208.57 2444.5) rotate(161.62)"/><rect class="cls-5" x="72.14" y="1260.48" width="116.7" height="150.4" transform="translate(1153.24 466.73) rotate(55.23)"/><rect class="cls-6" x="65.46" y="1133.19" width="193.17" height="186.78" transform="translate(1391.76 1362.77) rotate(103.85)"/><rect class="cls-5" x="71.64" y="1045.64" width="190.17" height="234.38" transform="translate(1269.6 758.33) rotate(78.02)"/><rect class="cls-7" x="300.76" y="1012.29" width="194.31" height="270.62" transform="translate(-229.58 107.62) rotate(-11.98)"/><rect class="cls-8" x="232.06" y="1090.92" width="144.67" height="225.56" transform="translate(-40.15 2396.51) rotate(-149.7)"/><rect class="cls-1" x="337.98" y="103.65" width="189.01" height="117.43" transform="matrix(0.31, -0.95, 0.95, 0.31, 143.73, 522.95)"/><rect class="cls-2" x="37.32" y="70.76" width="286.51" height="138.02" transform="translate(328.88 313.39) rotate(-168.24)"/><rect class="cls-3" x="267.26" y="14.18" width="89.65" height="165.19" transform="translate(296.22 423.14) rotate(-104.44)"/><rect class="cls-3" x="153.72" y="326.5" width="146.31" height="204.19" transform="translate(-247.09 531.17) rotate(-74.32)"/><rect class="cls-4" x="291.71" y="350.24" width="205.76" height="141.39" transform="translate(901.76 696) rotate(161.62)"/><rect class="cls-5" x="60.15" y="361.42" width="116.7" height="150.4" transform="translate(409.57 90.27) rotate(55.23)"/><rect class="cls-6" x="53.47" y="234.12" width="193.17" height="186.78" transform="translate(503.96 260.19) rotate(103.85)"/><rect class="cls-5" x="59.65" y="146.58" width="190.17" height="234.38" transform="translate(380.63 57.65) rotate(78.02)"/><rect class="cls-7" x="288.77" y="113.23" width="194.31" height="270.62" transform="translate(-43.19 85.54) rotate(-11.98)"/><rect class="cls-8" x="220.07" y="191.85" width="144.67" height="225.56" transform="translate(391.15 715.17) rotate(-149.7)"/><rect class="cls-1" x="343.97" y="1443.44" width="189.01" height="117.43" transform="translate(-1125.57 1452) rotate(-71.89)"/><rect class="cls-2" x="43.32" y="1410.55" width="286.51" height="138.02" transform="translate(67.72 2966.1) rotate(-168.24)"/><rect class="cls-3" x="273.26" y="1353.98" width="89.65" height="165.19" transform="translate(-993.74 2102.93) rotate(-104.44)"/><rect class="cls-3" x="159.72" y="1666.3" width="146.31" height="204.19" transform="translate(-1532.64 1514.58) rotate(-74.32)"/><rect class="cls-4" x="297.71" y="1690.04" width="205.76" height="141.39" transform="translate(1335.84 3305.38) rotate(161.62)"/><rect class="cls-5" x="66.15" y="1701.21" width="116.7" height="150.4" transform="translate(1512.69 661.03) rotate(55.23)"/><rect class="cls-6" x="59.47" y="1573.92" width="193.17" height="186.78" transform="translate(1812.25 1914.8) rotate(103.85)"/><rect class="cls-5" x="65.64" y="1486.37" width="190.17" height="234.38" transform="translate(1695.98 1113.42) rotate(78.02)"/><rect class="cls-7" x="294.77" y="1453.02" width="194.31" height="270.62" transform="translate(-321.22 115.97) rotate(-11.98)"/><rect class="cls-8" x="226.06" y="1531.65" width="144.67" height="225.56" transform="translate(-273.7 3214.74) rotate(-149.7)"/></svg>